PathFileType	4	(X/Y/Z)	C:/Users/beibeiliu/ov580/test_trc/User2\sequence.15_training_dense_right.trc
DataRate	CameraRate	NumFrames	NumMarkers	Units	OrigDataRate	OrigDataStartFrame	OrigNumFrames
120	120	12	19	mm	120	58	86
Frame#	Time	ThumbCMC			ThumbMCP			ThumbIP			ThumbTip			IndexMCP			IndexPIP			IndexTip			MiddleMCP			MiddlePIP			MiddleTip			RingMCP			RingPIP			RingTip			PinkyMCP			PinkyPIP			PinkyTip			BackHand1			BackHand2			BackHand3	
		X0	Y0	Z0	X1	Y1	Z1	X2	Y2	Z2	X3	Y3	Z3	X4	Y4	Z4	X5	Y5	Z5	X6	Y6	Z6	X7	Y7	Z7	X8	Y8	Z8	X9	Y9	Z9	X10	Y10	Z10	X11	Y11	Z11	X12	Y12	Z12	X13	Y13	Z13	X14	Y14	Z14	X15	Y15	Z15	X16	Y16	Z16	X17	Y17	Z17	X18	Y18	Z18	
57	0.475	36.3948	48.8708	8.07321	2.17453	33.9743	-9.99431	-18.8674	14.947	-33.478	-14.5659	-3.05717	-49.1828	37.8948	65.6508	-71.7605	30.7185	70.2082	-97.4364	24.6595	74.634	-124.567	34.1186	24.8232	-81.3472	2.74945	3.5564	-76.1477	1.17428	-3.43362	-38.5652	38.2403	-0.939237	-70.2831	12.7995	-14.6023	-54.264	15.8321	-2.74806	-18.5527	44.9707	-17.9455	-59.042	23.6804	-17.7326	-35.1611	36.378	0.393108	-7.00827	86.7872	26.8758	-36.9523	101.97	26.5771	-8.84144	75.6135	54.2329	-15.7734	
58	0.483333	48.8801	90.4683	24.0887	9.88447	91.5839	23.9303	-22.3588	83.2889	10.1281	-30.3151	59.2872	-9.05338	34.5973	100.229	-53.3082	21.951	112.512	-76.6756	10.6405	117.223	-99.1999	14.6826	70.708	-55.5603	-22.2009	61.881	-41.7652	-16.6252	60.8978	-1.6489	7.1992	48.3022	-42.8817	-14.9439	41.3538	-18.0492	-0.286363	48.8117	11.6727	11.5474	25.2771	-32.1867	-3.58399	31.9266	-2.73068	20.0833	41.2097	19.0632	70.6344	42.8885	-24.1133	94.9162	39.2074	2.10917	80.526	77.0367	-5.03868	
59	0.491667	70.3617	113.519	30.381	35.811	135.523	37.0499	0.516598	132.289	28.1028	-20.67	119.728	20.5739	44.3057	127.258	-43.6692	30.1773	137.009	-64.6543	15.1529	144.691	-87.556	9.95925	107.977	-39.8844	-20.3571	118.66	-21.6869	-14.1482	116.104	15.9025	-2.85587	87.719	-23.2612	-21.4865	97.287	2.76911	-1.83182	97.1625	31.9924	-2.95734	66.7133	-10.2313	-13.7355	82.0334	18.6249	13.6541	84.7043	34.1077	54.9434	61.8946	-15.1855	83.2215	47.2714	8.11366	85.1328	85.0159	-2.50772	
60	0.5	92.0265	121.4	28.2449	63.3152	146.864	32.7949	30.6135	163.063	31.0532	1.41396	158.592	25.4528	57.5937	132.539	-48.9315	47.9376	149.953	-70.1256	35.9289	162.376	-91.0287	25.5488	125.347	-38.0764	1.05787	150.344	-23.2107	6.95244	148.17	20.7331	2.85829	114.964	-18.3401	-7.49044	131.586	4.42932	11.8106	130.631	35.4696	-0.747192	93.808	-2.51758	-1.47497	119.888	20.7538	19.3813	113.397	40.9941	52.6997	68.5587	-10.2038	76.3261	50.872	10.3353	87.9478	86.5883	-6.78516	
61	0.508333	103.727	116.807	15.7045	85.7542	150.783	23.796	54.2975	171.931	19.9624	27.4574	168.348	15.8097	75.7746	125.818	-54.7458	64.5182	141.192	-80.7909	58.6128	157.064	-99.5522	36.3081	123.769	-44.62	19.3583	157.882	-33.2435	27.4667	163.065	4.62176	20.3299	122.241	-27.0291	10.1018	144.399	-9.17874	27.1156	145.267	23.8041	10.8288	108.236	-10.2496	8.58183	130.521	11.1132	38.2561	126.546	32.5261	55.5048	70.1143	-12.9699	76.2183	49.554	7.68126	97.445	81.2152	-11.9785	
62	0.516667	115.011	101.951	0.276	97.0645	136.604	3.54461	67.5966	161.751	-3.29735	42.0278	164.508	-5.96633	81.7211	105.983	-70.6136	75.255	118.991	-94.2255	71.2013	134.186	-120.264	42.3549	113.582	-62.4681	31.6801	145.535	-51.3946	41.6909	153.602	-11.1993	27.3554	108.955	-39.6708	25.0026	139.91	-23.3567	44.6588	139.135	9.11408	17.0267	97.9059	-20.3306	23.3756	127.625	-2.92009	50.9141	121.65	14.7931	62.0596	56.7962	-20.9212	78.33	35.5244	2.04967	99.2499	64.9907	-22.7843	
63	0.525	120.464	82.9534	-17.8887	102.873	116.793	-19.289	77.5137	141.878	-27.0872	46.9652	145.169	-31.677	86.0455	78.1745	-88.6951	85.4281	90.0893	-116.521	72.3325	98.8022	-140.503	49.1923	86.1752	-76.795	37.0158	118.483	-71.1701	49.3136	132.365	-30.052	33.0489	84.9139	-55.4654	28.4357	114.889	-42.0769	49.1239	120.298	-14.1848	23.7805	77.576	-34.9913	30.1247	106.674	-23.8849	56.1339	106.27	-2.52528	65.5879	35.1103	-35.5317	85.2337	17.9536	-6.83913	106.705	43.693	-35.8891	
64	0.533333	129.412	61.7136	-29.2817	107.467	97.6541	-42.1631	82.7791	118.448	-50.0718	52.0077	117.564	-57.3783	99.6593	48.29	-103.294	92.5923	55.6071	-134.409	81.1138	58.9743	-158.114	60.5253	56.0419	-95.3604	41.3958	86.7042	-89.2698	53.5319	107.009	-57.3468	41.5568	54.8414	-73.759	33.245	87.915	-61.0508	53.4896	97.3341	-38.312	33.3385	49.8706	-53.097	35.8585	81.504	-41.5876	59.6195	84.3986	-20.5488	75.6742	10.5907	-45.1933	96.4143	-2.14433	-16.1096	116.536	20.2868	-44.214	
65	0.541667	136.357	55.8889	-39.6289	110.311	81.5939	-51.9795	83.9972	99.0792	-67.3667	56.5203	96.3378	-74.376	113.836	30.2804	-111.639	104.503	31.7863	-141.369	99.4179	32.8139	-164.865	70.0901	30.3634	-107.305	51.011	58.7569	-105.856	55.8858	83.1922	-76.5605	55.6895	31.5757	-89.1876	43.4684	59.7675	-82.0836	59.7367	76.8624	-54.4772	45.6432	25.4393	-67.4072	42.2128	57.3956	-55.6998	64.719	64.2313	-38.8025	96.1339	-6.32781	-49.9175	115.984	-10.4884	-20.1383	131.329	8.1386	-52.2681	
66	0.55	143.577	58.6745	-41.6914	115.015	78.7875	-55.7956	85.1364	89.3265	-77.9407	61.4508	80.2628	-85.6941	131.018	27.3699	-117.423	130.334	30.3462	-142.057	125.111	28.5786	-172.691	94.5471	19.3675	-112.059	66.0232	43.8922	-116.445	61.3717	68.4901	-82.9089	71.4481	16.6948	-98.0299	53.606	43.6096	-90.6731	63.2326	62.3462	-65.3102	63.6927	7.90426	-76.3654	51.8726	36.5094	-70.5728	69.4583	51.5686	-44.3517	115.216	-12.8336	-56.1598	131.967	-11.9284	-23.6702	149.465	12.2448	-49.7572	
67	0.558333	144.517	70.6945	-36.5227	112.22	81.7117	-55.0108	83.8597	79.2582	-78.0402	63.1918	70.9592	-90.2621	149.612	41.5112	-114.025	149.774	46.9078	-141.25	147.096	44.3341	-169.259	115.382	26.5106	-117.326	83.1922	37.249	-121.746	65.8465	55.6465	-91.3738	97.6406	10.1467	-100.003	70.6377	29.9537	-99.364	68.0375	49.6964	-69.4323	86.286	-1.68487	-81.1937	66.4877	28.1659	-76.2172	74.3719	41.7235	-50.5954	141.314	-3.32207	-54.0679	153.259	-4.35671	-19.9907	165.315	29.6709	-48.7948	
68	0.566667	132.231	76.2309	-29.5394	101.629	77.9045	-49.4481	73.7329	73.5908	-77.4199	61.2247	56.0928	-94.2473	154.781	60.2717	-105.497	156.516	65.0901	-132.696	156.858	72.2536	-160.596	129.282	30.3706	-117.215	96.1307	32.9486	-123.881	69.857	41.6469	-94.735	114.64	10.3727	-103.092	84.5382	21.3651	-102.588	72.5167	37.7849	-69.9233	108.39	-3.51775	-86.7421	82.3622	11.7388	-83.128	82.448	31.4525	-53.7276	158.861	11.3763	-52.7878	166.018	10.2927	-21.2021	167.402	43.4333	-42.0959	
